<svg width="223" height="133" xmlns="http://www.w3.org/2000/svg" xmlns:xlink="http://www.w3.org/1999/xlink"><defs><path id="a" d="M0.067 0.738L20.603 21.274 198.147 21.274 177.612 0.738z"/><path id="c" d="M0.067 0.738L20.603 21.274 198.147 21.274 177.612 0.738z"/><path id="e" d="M0.067 0.738L20.603 21.274 198.147 21.274 177.612 0.738z"/><path id="g" d="M0.067 0.738L20.603 21.274 198.147 21.274 177.612 0.738z"/><path id="i" d="M0.067 0.738L20.603 21.274 198.147 21.274 177.612 0.738z"/><path id="k" d="M0.067 0.738L20.603 21.274 198.147 21.274 177.612 0.738z"/><path id="m" d="M0.067 0.738L20.603 21.274 198.147 21.274 177.612 0.738z"/><path id="o" d="M0.067 0.738L20.603 21.274 198.147 21.274 177.612 0.738z"/><path id="q" d="M0.067 0.738L20.603 21.274 198.147 21.274 177.612 0.738z"/><path id="s" d="M0.067 0.738L20.603 21.274 198.147 21.274 177.612 0.738z"/><path id="u" d="M0.067 0.738L20.603 21.274 198.147 21.274 177.612 0.738z"/><path id="w" d="M0.067 0.738L20.603 21.274 198.147 21.274 177.612 0.738z"/><path id="y" d="M0.067 0.738L20.603 21.274 198.147 21.274 177.612 0.738z"/><path id="A" d="M0.067 0.738L20.603 21.274 198.147 21.274 177.612 0.738z"/><path id="C" d="M0.067 0.738L20.603 21.274 198.147 21.274 177.612 0.738z"/><path id="E" d="M0.067 0.738L20.603 21.274 198.147 21.274 177.612 0.738z"/><path id="G" d="M0.067 0.738L20.603 21.274 198.147 21.274 177.612 0.738z"/><path id="I" d="M0.067 0.738L20.603 21.274 198.147 21.274 177.612 0.738z"/></defs><g fill="none" fill-rule="evenodd"><g transform="translate(2 1.588)"><path d="M157.533.103L123.774 33.69H.215v33.396L26.08 92.95l4.81 4.831 30.253 30.391 20.916-20.81 20.718 20.81L136.51 94.61h81.974V61.214c-33.647-33.648-18.876-18.84-60.95-61.11" fill="#FFFFFE"/><path d="M157.533.103L123.774 33.69H.215v33.396L26.08 92.95l4.81 4.831 30.253 30.391 20.916-20.81 20.718 20.81L136.51 94.61h81.974V61.214c-33.647-33.648-18.876-18.84-60.95-61.11z"/><path fill="#E8E75B" d="M146.9494 39.3556L167.8734 18.5256 157.5124 8.1196 126.1184 39.3556z"/><path fill="#26609E" d="M167.7736 39.3556L178.2316 28.9326 167.8726 18.5256 146.9486 39.3556z"/><path fill="#DE496F" d="M188.5744 39.3556L188.5904 39.3406 178.2304 28.9336 167.7374 39.3556z"/><path d="M192.139 50.68a.91.91 0 1 0 0 1.82.91.91 0 0 0 0-1.82m4.487 4.487a.91.91 0 1 0 0 1.82.91.91 0 0 0 0-1.82m4.513 4.513a.91.91 0 1 0 0 1.82.91.91 0 0 0 0-1.82m-9-4.572a.91.91 0 1 0 0 1.821.91.91 0 0 0 0-1.82m4.487 4.487a.91.91 0 1 0 0 1.82.91.91 0 0 0 0-1.82m4.513 4.513a.91.91 0 1 0 0 1.82.91.91 0 0 0 0-1.82m-9-4.571a.91.91 0 1 0 0 1.82.91.91 0 0 0 0-1.82m4.487 4.487a.91.91 0 1 0 0 1.821.91.91 0 0 0 0-1.82m4.513 4.512a.91.91 0 1 0 0 1.82.91.91 0 0 0 0-1.82m-9-4.571a.91.91 0 1 0 0 1.82.91.91 0 0 0 0-1.82m4.487 4.487a.91.91 0 1 0 0 1.82.91.91 0 0 0 0-1.82m4.513 4.512a.91.91 0 1 0 0 1.821.91.91 0 0 0 0-1.82m4.487-6.978a.91.91 0 1 0 .001-1.821.91.91 0 0 0 0 1.82m0 2.608a.91.91 0 1 0 0 1.82.91.91 0 0 0 0-1.82m0 4.429a.91.91 0 1 0 0 1.82.91.91 0 0 0 0-1.82m0 4.43a.91.91 0 1 0 0 1.82.91.91 0 1 0 0-1.82" fill="#26609E"/><path fill="#E8E75B" d="M188.6115 64.7384L11.1315 64.7384 31.6675 85.2744 209.1475 85.2744z"/><path d="M31.607 85.274L11.07 64.738h177.54V44.545l20.537 20.537v20.192H31.607zM14.514 44.459l2.517 9.768 3.162-9.768h3.486l3.163 9.789 2.474-9.789h3.486l-4.153 15.254h-3.507l-3.25-10.112-3.27 10.112h-3.571l-4.152-15.254h3.615zm20.703 0h9.66v3.205h-6.261v2.905h5.68v2.991h-5.68v2.926h6.283v3.227h-9.682V44.459zm13.084 0h5.702c3.012 0 4.755 1.742 4.755 4.087 0 1.571-.99 2.862-2.238 3.271 1.377.323 2.712 1.592 2.712 3.572 0 2.495-1.894 4.324-4.777 4.324H48.3V44.459zm20.809-.323c4.583 0 6.606 2.948 7.1 5.142l-3.205 1.011c-.237-1.054-1.205-2.84-3.895-2.84-2.043 0-4.346 1.463-4.346 4.669 0 2.862 2.109 4.518 4.389 4.518 2.647 0 3.7-1.764 4.003-2.861l3.248.925c-.494 2.109-2.517 5.336-7.251 5.336-4.39 0-7.917-3.163-7.917-7.918 0-4.755 3.615-7.982 7.874-7.982zm17.088 0c4.282 0 7.918 3.12 7.918 7.961 0 4.82-3.636 7.939-7.918 7.939-4.303 0-7.94-3.119-7.94-7.939 0-4.841 3.637-7.961 7.94-7.961zm10.89.323h4.132l5.723 9.273v-9.273h3.399v15.254h-3.592l-6.283-10.026v10.026h-3.378V44.459zm17.089 0h9.832v3.227h-6.433v3.228h5.659v3.097h-5.637v5.702h-3.421V44.459zm12.267 11.037c1.204 0 2.216.99 2.216 2.195 0 1.184-1.012 2.215-2.216 2.215-1.205 0-2.195-1.031-2.195-2.215 0-1.205.99-2.195 2.195-2.195zm10.027-11.037h3.937l5.68 15.254h-3.7l-1.097-3.098h-5.895l-1.098 3.098h-3.572l5.745-15.254zm17.71 9.445l-2.086-.387c-2.582-.495-4.152-2.217-4.152-4.476 0-2.883 2.539-4.905 5.465-4.905 3.808 0 5.25 2.281 5.572 4.067l-3.056.86c-.106-.71-.687-1.915-2.538-1.915-1.27 0-2.087.796-2.087 1.635 0 .732.453 1.27 1.506 1.463l2.044.388c2.904.537 4.41 2.41 4.41 4.582 0 2.389-2 4.82-5.636 4.82-4.217 0-6.025-2.733-6.24-4.884l3.12-.753c.128 1.398 1.076 2.625 3.164 2.625 1.333 0 2.15-.646 2.15-1.592 0-.775-.623-1.334-1.635-1.528zm7.945 5.809h3.443V44.459h-3.443v15.254zm11.577-15.254h3.936l5.68 15.254h-3.7l-1.097-3.098h-5.894l-1.098 3.098h-3.572l5.745-15.254zm39.112 44.482V63.563l-24.203-24.204H5.885v25.379l24.203 24.203h182.727z" fill="#1A1919"/><path fill="#E893B5" d="M71.7253 88.9196L50.8023 109.7496 61.1613 120.1556 92.5563 88.9196z"/><path fill="#E8E75B" d="M113.3591 88.9196L92.4361 109.7496 102.7951 120.1556 134.1911 88.9196z"/><path fill="#26609E" d="M92.5349 88.9196L82.0769 99.3426 92.4359 109.7496 113.3599 88.9196z"/><path fill="#DE496F" d="M71.7341 88.9196L71.7191 88.9356 82.0781 99.3416 92.5711 88.9196z"/><path fill="#26609E" d="M50.9006 88.9196L40.4426 99.3426 50.8026 109.7496 71.7256 88.9196z"/><path fill="#00A486" d="M30.0998 88.9196L30.0848 88.9356 40.4438 99.3416 50.9368 88.9196z"/></g><g transform="translate(13 65.588)"><mask id="b" fill="#fff"><use xlink:href="#a"/></mask><path fill="#26609E" mask="url(#b)" d="M-2.8851 -2.0692L29.5259 30.3418 32.1179 27.7488 -0.2921 -4.6622z"/><mask id="d" fill="#fff"><use xlink:href="#c"/></mask><path fill="#26609E" mask="url(#d)" d="M7.3054 -2.0692L39.7164 30.3418 42.3084 27.7488 9.8984 -4.6622z"/><mask id="f" fill="#fff"><use xlink:href="#e"/></mask><path fill="#26609E" mask="url(#f)" d="M17.4958 -2.0692L49.9068 30.3418 52.4988 27.7488 20.0888 -4.6622z"/><mask id="h" fill="#fff"><use xlink:href="#g"/></mask><path fill="#26609E" mask="url(#h)" d="M27.6862 -2.0692L60.0972 30.3418 62.6892 27.7488 30.2792 -4.6622z"/><mask id="j" fill="#fff"><use xlink:href="#i"/></mask><path fill="#26609E" mask="url(#j)" d="M37.8766 -2.0692L70.2876 30.3418 72.8796 27.7488 40.4696 -4.6622z"/><mask id="l" fill="#fff"><use xlink:href="#k"/></mask><path fill="#26609E" mask="url(#l)" d="M48.0671 -2.0692L80.4781 30.3418 83.0701 27.7488 50.6601 -4.6622z"/><mask id="n" fill="#fff"><use xlink:href="#m"/></mask><path fill="#26609E" mask="url(#n)" d="M58.2575 -2.0692L90.6685 30.3418 93.2605 27.7488 60.8505 -4.6622z"/><mask id="p" fill="#fff"><use xlink:href="#o"/></mask><path fill="#26609E" mask="url(#p)" d="M68.4474 -2.0692L100.8584 30.3418 103.4514 27.7488 71.0404 -4.6622z"/><mask id="r" fill="#fff"><use xlink:href="#q"/></mask><path fill="#26609E" mask="url(#r)" d="M78.6379 -2.0692L111.0489 30.3418 113.6419 27.7488 81.2309 -4.6622z"/><g><mask id="t" fill="#fff"><use xlink:href="#s"/></mask><path fill="#26609E" mask="url(#t)" d="M88.8283 -2.0692L121.2393 30.3418 123.8323 27.7488 91.4213 -4.6622z"/></g><g><mask id="v" fill="#fff"><use xlink:href="#u"/></mask><path fill="#26609E" mask="url(#v)" d="M99.0187 -2.0692L131.4297 30.3418 134.0227 27.7488 101.6117 -4.6622z"/></g><g><mask id="x" fill="#fff"><use xlink:href="#w"/></mask><path fill="#26609E" mask="url(#x)" d="M109.2092 -2.0692L141.6202 30.3418 144.2132 27.7488 111.8022 -4.6622z"/></g><g><mask id="z" fill="#fff"><use xlink:href="#y"/></mask><path fill="#26609E" mask="url(#z)" d="M119.3996 -2.0692L151.8106 30.3418 154.4036 27.7488 121.9926 -4.6622z"/></g><g><mask id="B" fill="#fff"><use xlink:href="#A"/></mask><path fill="#26609E" mask="url(#B)" d="M129.59 -2.0692L162.001 30.3418 164.594 27.7488 132.183 -4.6622z"/></g><g><mask id="D" fill="#fff"><use xlink:href="#C"/></mask><path fill="#26609E" mask="url(#D)" d="M139.7805 -2.0692L172.1915 30.3418 174.7845 27.7488 142.3735 -4.6622z"/></g><g><mask id="F" fill="#fff"><use xlink:href="#E"/></mask><path fill="#26609E" mask="url(#F)" d="M149.9709 -2.0692L182.3809 30.3418 184.9749 27.7488 152.5639 -4.6622z"/></g><g><mask id="H" fill="#fff"><use xlink:href="#G"/></mask><path fill="#26609E" mask="url(#H)" d="M160.1613 -2.0692L192.5713 30.3418 195.1643 27.7488 162.7543 -4.6622z"/></g><g><mask id="J" fill="#fff"><use xlink:href="#I"/></mask><path fill="#26609E" mask="url(#J)" d="M172.9445 -3.9413L170.3515 -1.3483 202.7615 31.0617 205.3545 28.4697z"/></g></g></g></svg>